/* XPM */
static char *_ab324270b054476c7242db57fc1cefaqXLpLk4B4cbgXw1R[] = {
/* columns rows colors chars-per-pixel */
"50 50 120 2 ",
"   c #70A9DD",
".  c #673C28",
"X  c #663C29",
"o  c #59440C",
"O  c #7A4530",
"+  c #726560",
"@  c #99511D",
"#  c #B05F25",
"$  c #B3662D",
"%  c #B5692C",
"&  c #BF762B",
"*  c #C0723A",
"=  c #C77942",
"-  c #F2B20F",
";  c #F2B40F",
":  c #F4B80F",
">  c #F5BC10",
",  c #EBB326",
"<  c #ECB426",
"1  c #F4BD20",
"2  c #E3A732",
"3  c #E4A83E",
"4  c #FACA10",
"5  c #FBCE11",
"6  c #FBCF11",
"7  c #FDCE13",
"8  c #FCC814",
"9  c #FCCA18",
"0  c #FCCB1B",
"q  c #FCCC1D",
"w  c #FDCD1F",
"e  c #FDD013",
"r  c #FDD411",
"t  c #FDD511",
"y  c #FED512",
"u  c #FED612",
"i  c #FED712",
"p  c #FFD912",
"a  c #FCCF23",
"s  c #FDCF23",
"d  c #FCD026",
"f  c #FCD127",
"g  c #FFD026",
"h  c #FDD22A",
"j  c #FDD32C",
"k  c #EACB37",
"l  c #FED634",
"z  c #FFD53B",
"x  c #FDDA3B",
"c  c #FFDB3D",
"v  c #A98448",
"b  c #F4965F",
"n  c #CED050",
"m  c #E7CE42",
"M  c #F9D84A",
"N  c #FFD94D",
"B  c #FDE14A",
"V  c #FDE24D",
"C  c #FEE553",
"Z  c #FFEA50",
"A  c #FFEC56",
"S  c #FFEE5C",
"D  c #FFE466",
"F  c #FEEC63",
"G  c #FEED64",
"H  c #FEEE65",
"J  c #FEEE66",
"K  c #F5E56C",
"L  c #FEEF69",
"P  c #FFF065",
"I  c #FFF36E",
"U  c #FDE77A",
"Y  c #FEF371",
"T  c #FFF372",
"R  c #FFF474",
"E  c #FFF575",
"W  c #ED64AA",
"Q  c #F174B5",
"!  c #F075B5",
"~  c #F578B7",
"^  c #F67FBD",
"/  c #3BB08A",
"(  c #678FA0",
")  c #3AC38C",
"_  c #3AC68C",
"`  c #3AC88D",
"'  c #48CB9B",
"]  c #71E2A8",
"[  c #71E7AD",
"{  c #23A1DA",
"}  c #23A1DB",
"|  c #22A0DC",
" . c #25A4DD",
".. c #31AEE8",
"X. c #3FC6F0",
"o. c #5AC6F2",
"O. c #59C8F0",
"+. c #5DD5F5",
"@. c #65D4F7",
"#. c #7BDDF8",
"$. c #F49A96",
"%. c #F9BD8D",
"&. c #EB89B2",
"*. c #F790BE",
"=. c #B2DAA0",
"-. c #8EF1BF",
";. c #FFEE80",
":. c #F689C1",
">. c #F79AC4",
",. c #F790C8",
"<. c #F9AED0",
"1. c #F8ACD2",
"2. c #F9B3D2",
"3. c #FCB2D5",
"4. c #A9FAD1",
"5. c #ADFCD4",
"6. c #83E3FA",
"7. c #84E3FA",
"8. c #9CF4FF",
"9. c #FBCFE3",
/* pixels */
"                                                                                                    ",
"                                                                                                    ",
"                                                                                                    ",
"                                                                                                    ",
"                                                                                                    ",
"                                                                                                    ",
"                                                                                                    ",
"                                                                                                    ",
"                                                                                                    ",
"                                                                                                    ",
"                                                                                                    ",
"                                                                                                    ",
"                              ;.# # # # # # # # # # # # # # # # # # ;.                              ",
"                            ;.= = = = = = = = = = = = = = = = = = = = ;.                            ",
"                          D D * * * * * * * * * * * * * * * * * * * * D D                           ",
"                          z z = = = = = = = = = = = = = = = = = = = = z z                           ",
"                          z 3 = = = = = = = N N N N N N = = = = = = = 3 z                           ",
"                          z z z z z z z z z N N N N N N z z z z z z z z z                           ",
"                          z z z z z z z z z N N N N N N z z z z z z z z z                           ",
"                          X X X O O O O O O O O O O O O O + ( O O O X X X                           ",
"                            X X O O O O O O E E E v O O 6.7.8. .O O . .                             ",
"                              &.1.%.: r - E p p ' 5 E O X.X.@.M - W 2.*.                            ",
"                              1.:.$.E S -.5.` E E 8 8 4 - E } ~ t ^ 9.,.*.                          ",
"                            E ^ ,.b 8 8 _ ] p e r ; l E p p - h 8 W ^ 9.*.                          ",
"                          E 2 E E E 3.8 r n E E E H O.8 8 E E H p Q Q W U                           ",
"                          g g g g g g g g g g g g g g g g w 8 g g g g g g                           ",
"                    E E E g g g g g g g g g g g o o g g g g g g g g g g g   E                       ",
"                  T p p p g $ $ $ $ % g $ $ g g , , g g $ $ g % $ $ $ $ g p p p E                   ",
"                  8 x L h g $ $ $ $ $ g $ $ $ g < < g $ $ $ g $ $ $ $ $ g E E E g                   ",
"                  E A p I g $ $ $ $ $ g $ $ $ $ $ $ $ $ $ $ g $ $ $ $ $ g 8 8 8 E                   ",
"                  8 8 8 4 g & $ $ $ $ g $ $ $ $ $ $ $ $ $ $ g $ $ $ $ & g 8 8 8 8                   ",
"                  8 E E E E E =.K @ @ g @ @ @ @ @ @ @ @ @ @ g @ @ @ E E E E E E R                   ",
"                  E r e E p p ..E $ $ g $ $ $ $ $ $ $ $ $ $ g $ $ E p p p p 9 E E                   ",
"                  8 8 8 8 8 j 8 4 $ $ g $ $ $ $ $ $ $ $ $ $ g $ $ s x 8 8 8 c P 5 E                 ",
"                  d R E E E Z E E g g g g g g m o.k g g g g g g g g E E E E 8 E p 1                 ",
"                    8 8 g 8 8 8 w           | #.8.X.  5.  E E E E E c 8 8 8 E 8 E >                 ",
"                        8 B E V 8           } +.@.} / 4.[ r p p p E x H L 8 8   8 E                 ",
"                                                }     ] _ c C E 9 4                                 ",
"                                                                                                    ",
"                                                                                                    ",
"                                                                                                    ",
"                                                                                                    ",
"                                                                                                    ",
"                                                                                                    ",
"                                                                                                    ",
"                                                                                                    ",
"                                                                                                    ",
"                                                                                                    ",
"                                                                                                    ",
"                                                                                                    "
};
