/* XPM */
static char *c6f42cd2f9814bf48efafbc1c274a4e8v6L6xFngDZ4GdgAu[] = {
/* columns rows colors chars-per-pixel */
"50 50 173 2 ",
"   c #70A9DD",
".  c #0D0D0D",
"X  c #060606",
"o  c #100F0F",
"O  c #0E0C13",
"+  c #0D1216",
"@  c #121313",
"#  c #14191A",
"$  c #1A1D1C",
"%  c #18151D",
"&  c #241D17",
"*  c #1F201D",
"=  c #28241F",
"-  c #212321",
";  c #392D2B",
":  c #3C3E3D",
">  c #343636",
",  c #393528",
"<  c #771E3C",
"1  c #46382C",
"2  c #473734",
"3  c #584538",
"4  c #3F2E56",
"5  c #003C6E",
"6  c #07386D",
"7  c #003F70",
"8  c #004072",
"9  c #1F4471",
"0  c #4C4C4C",
"q  c #535353",
"w  c #585858",
"e  c #6D5A4A",
"r  c #6A5646",
"t  c #755A49",
"y  c #735A52",
"u  c #7B644F",
"i  c #6E4062",
"p  c #6B6B6B",
"a  c #747474",
"s  c #AB060F",
"d  c #AF0C1D",
"f  c #B10B1E",
"g  c #B3181F",
"h  c #AF0F24",
"j  c #B30D21",
"k  c #BA1A35",
"l  c #BD2C28",
"z  c #BA2032",
"x  c #BA3636",
"c  c #B7623F",
"v  c #C13747",
"b  c #856A41",
"n  c #886D58",
"m  c #93775E",
"M  c #9E7C61",
"N  c #A77F6A",
"B  c #CA4A41",
"V  c #D4584D",
"C  c #C84F5E",
"Z  c #E37D54",
"A  c #D06976",
"S  c #AF834E",
"D  c #B2854E",
"F  c #B68A4A",
"G  c #BA8E4F",
"H  c #B78944",
"J  c #B38750",
"K  c #BA8F52",
"L  c #B68A50",
"P  c #BC9154",
"I  c #A8876B",
"U  c #C1955A",
"Y  c #C49A5C",
"T  c #C39656",
"R  c #EB8854",
"E  c #F99F5E",
"W  c #F2B25B",
"Q  c #CA9C64",
"!  c #C09A60",
"~  c #D29E6A",
"^  c #C1997A",
"/  c #F0926F",
"(  c #E5977B",
")  c #F39A76",
"_  c #CEA169",
"`  c #D2A46D",
"'  c #C6A370",
"]  c #DDAA75",
"[  c #FAA162",
"{  c #FBAE77",
"}  c #FBB47E",
"|  c #7D879A",
" . c gray52",
".. c #959595",
"X. c gray60",
"o. c #889AB3",
"O. c #989DBA",
"+. c #A48FA3",
"@. c #87A2B9",
"#. c #90A7BB",
"$. c #A1A2A2",
"%. c #ADAEAE",
"&. c #B4B5B5",
"*. c #BBBBBB",
"=. c #B8B7B6",
"-. c #D9838D",
";. c #D1AA86",
":. c #CEB187",
">. c #DEB38D",
",. c #EAA686",
"<. c #FFAD8E",
"1. c #F5A280",
"2. c #FCB985",
"3. c #FCBD8B",
"4. c #F8B78E",
"5. c #FFAE92",
"6. c #EDBF96",
"7. c #FFB393",
"8. c #F5BA94",
"9. c #FFBA96",
"0. c #FEBD99",
"q. c #C7B4A5",
"w. c #DEC29D",
"e. c #F5C296",
"r. c #FDC394",
"t. c #F4C59A",
"y. c #FFC49A",
"u. c #FFCA9E",
"i. c #DCC3AA",
"p. c #DAC7AA",
"a. c #C5C0BE",
"s. c #EBC7AD",
"d. c #FFCCA1",
"f. c #FECBAC",
"g. c #FFD2AC",
"h. c #FFC7B1",
"j. c #FDD3B2",
"k. c #FFDABC",
"l. c #FBD7B8",
"z. c #98B4C8",
"x. c #B2BBC8",
"c. c #E3BBC2",
"v. c #C5C4C4",
"b. c #CAC5C3",
"n. c #CDCDCD",
"m. c #C4CBCF",
"M. c #D0CCCA",
"N. c #C6CDD5",
"B. c #CACFD6",
"V. c #CED0D4",
"C. c #D3D3D3",
"Z. c #DBDBDB",
"A. c #FCDDC5",
"S. c #FBD9C6",
"D. c #E1DFDD",
"F. c #FDE2CC",
"G. c #FCE4D3",
"H. c #FFECDD",
"J. c #FBE8D9",
"K. c #CFDCE5",
"L. c #DDE0E3",
"P. c #E3E3E3",
"I. c #ECECEC",
"U. c #E7E9EB",
"Y. c #FFEFE2",
"T. c #F6EBE3",
"R. c #FFF1E4",
"E. c #FFF4EC",
"W. c #F4F1EE",
"Q. c #F3F3F3",
"!. c #FEF9F5",
"~. c #FDFDFD",
"^. c #F7F8F8",
/* pixels */
"                                                                                                    ",
"                                                                                                    ",
"                                                                                                    ",
"                                                            n.C.C.C.L.                              ",
"                                                        Z.I.Q.Q.Q.Q.Q.Z.                            ",
"                                              Z.C.Z.C.C.Q.Q.~.Q.Q.Q.Q.Q.U.                          ",
"                                            C.Q.Q.Q.Q.Q.Q.Q.~.~.Q.Q.Q.Q.Q.Z.                        ",
"                                          C.Q.Q.Q.L.W.Q.Q.~.~.~.~.!.Q.Q.Q.Q.                        ",
"                                          P.Z.. q C.~.~.~.~.~.~.~.~.~.Q.Q.Q.Z.                      ",
"                                          . . ~.n.&.Q.Z.v.&.%.~.~.~.~.Q.Q.Q.Z.                      ",
"                                o     $ $ - ~.C.=.=.L.~.n.&.n.U.^.~.Q.Q.Q.I.Q.                      ",
"                                o @ # $ q ~.~.~...q w ~.~.&.&.=.^.: 0 Q.Z.Q.Q.U.C.                  ",
"                              . . . o $ > 0 X . . . $ $ p Q.^. .# $ Q.Q.W.Q.Q.Q.Q.Z.                ",
"                              . . . o $ $ $ $ . o o $ $ $ . . . $ . Q.W.W.~.~.Q.Q.Q.C.              ",
"                            - . . . . $ # * # o . . # $ $ . . . $ ..Q.Q.Q.^.Q.Q.Q.Q.Q.              ",
"                            $ . . & u.r $ * t.X . . = $ # . . . $ $.a Q.^.~.~.Q.Q.Q.Q.Z.            ",
"                            $ o = u.u.u.$ $ e.t.. . 3 e $ . . . $ . : ~.~.~.~.~.Q.Q.I.C.            ",
"                          , $ O u.y.u.u.e $ 6.d.>.. + d.r . . . U.*.&.~.~.~.~.Q.Q.Q.Q.C.            ",
"                        P # * m u.u.u.u.d.@ >.u.u.6.o d.u.r . $.~.!.~.~.~.~.~.Q.Q.Q.Q.n.            ",
"                      Y S + $ u.u.u.u.u.u.t.;.u.u.d.d.e.u.u.m X $ $ P Q.Q.Q.Q.Q.Q.Q.U.Z.            ",
"                    m.J P = o d.u.u.u.u.d.u.u.u.d.u.u.d.u.r.y.M $ # K i.Q.Q.Q.Q.Z.P.Q.I.C.          ",
"                I.L.:.P T 2 * u.u.u.d.0 I d.u.u.u.u.2 q.y.y.9.y.$ b J G Q.Q.~.Q.P.Q.Q.Q.Q.Z.        ",
"                W.Q.F D 8.I 3 0.9.0.~.Q.~.e 3.r.u.=.Q.~.G.9.7.9.# u.U P Q.Q.Q.Q.Q.Q.Q.Q.Q.Q.n.      ",
"              C.Q.W.F K u.y.t 7.<.<.~.p ~.A.u.d.u.~.X.Q.Y.7.<.7.1 y.y.] Q.~.~.~.P.Q.Q.Q.Q.Q.C.      ",
"              P.Q.Q.H D u.y.N 7.<.<.h.~.H.u.u.u.d.d.!.E.) / 5.5.,.u.j.G.~.E.~.~.~.Q.Q.Q.Q.Q.P.      ",
"              U.Q.Q.:.F e.0.0.5.5.<.7.9.r.u.d.u.d.d.y.Z 1.5.5.h.!.R.Y.H.R.R.~.~.~.Q.Q.Q.Q.I.        ",
"              P.Q.Q.Q.D K Q ~ 7.5.7.9.~.~.!.Y.H.E.!.~.G.9.7.S.Y.R.E.!.!.~.~.~.Q.Q.Q.Q.Q.Q.Z.        ",
"              n.Q.Q.Q.' D F K 0.9.9.9.N.U.^.~.~.~.Q.L.s.0.0.~.~.!.w.g.u.u.g.Q.Q.Q.Q.Q.Q.Z.          ",
"              C.I.Q.Q.^.P D c V y.0.y.f.~.~.~.~.~.~.~.y.u.f.A.F P P d.d.u.J.Q.Q.Q.Q.Q.Q.Q.Z.        ",
"            P.Q.C.I.Q.Q.^.p.l E y.u.u.u.d.Y.~.~.~.F.d.d.u.u.l K P Q.d.u.g.Q.~.~.Q.Q.Q.Q.Q.Z.        ",
"          P.Q.Q.Q.U.Q.Q.^.Q.0.u.[ { u.d.u.u.u.d.d.u.d.u.u.g x Q.Q.J.u.~.H.~.~.~.~.Q.Q.Q.Q.Q.        ",
"        Z.Q.Q.Q.Q.Q.Q.^.I.Q.u.d.u.E R f B ( 8.0.8.,.V s j j f o.^.j.!.~.~.~.~.~.Q.Q.Q.Q.P.Z.        ",
"        C.Q.Q.Q.Q.Q.Q.a.~.q.g.d.r.r.u.g f f f W k j d j j h 5 6 d.d.d.d.^.Q.Q.Q.^.Q.C.U.Q.Q.P.P.    ",
"        n.Q.Q.Q.Q.Q.C.Q.I.~.d.d.r.u.d.d f f -.A C v k d 4 7 5 2.3.r.d.u.n.Q.Q.~.~.I.Q.Q.Q.Q.Q.U.    ",
"        Z.Q.Q.Q.Q.Q.S.Z.~.U.F.u.2.d.d.6 < f c.z.+.A i 8 7 7  .2.r.g.!.D.d.Q.Q.~.~.P.Q.Q.Q.Q.Q.Q.Z.  ",
"          Z.Q.Q.Q.Q.d.d.b.~.!.u.u.u.d.5 5 O.Q.K.@.5 5 5 7 5 B.U.Q.!.v.u.u.Q.Q.~.~.Q.I.Q.Q.Q.Q.Q.C.  ",
"            P.Q.Q.Q.u.d.d.s.P.d.u.u.k.~.~.~.~.~.N.V.N.N.x.#.b.^.D.i.u.u.u.^.~.~.~.~.Q.Q.Q.Q.Q.Q.Z.  ",
"  Z.        n.Q.Q.Q.d.u.u.u.A.d.u.u.R.E.~.~.~.^.Q.Q.Q.Q.Q.Q.Q.Q.j.u.u.G.R.~.~.~.~.~.Q.W.Q.Q.Q.C.    ",
"  C.D.C.Z.C.Q.Q.Q.W.W.u.u.u.l.T.u.k.J.Q.Q.Q.Q.Q.Q.Q.Q.Q.Q.Q.Q.Q.d.u.g.Y.E.~.~.~.~.Q.Q.Q.Q.Q.Q.      ",
"  Z.Q.Q.Q.Q.Q.Q.Q.Q.Q.u.u.u.g.Q.u.u.d.d.F.Q.Q.Q.Q.I.Q.Q.Q.Q.Q.Q.u.u.E.Y.Q.Q.Q.Q.U.Q.Q.Q.Q.Q.U.      ",
"    Z.Q.Q.Q.Q.Q.Q.Q.Q.S.d.d.d.Q.u.3.r.u.u.g.Q.Q.Q.C.Q.Q.Q.Q.Q.U.d.d.d.Q.Q.Q.Q.C.Q.Q.Q.Q.Q.Q.C.      ",
"      Z.Q.Q.Q.I.L.L.b.O y 3 n Q.u.2.y.r.u.G.Q.D.Z.Z.P.I.I.Z.Z.  2 u % ; Q.P.Z.Z.Q.Q.Q.Q.Q.C.        ",
"          Z.v.      u.d.t.I d.p.u.y.3.} y.                    e.d.n u.u.u.      C.C.n.C.            ",
"                  T P Q ` P `   d.u.d.u.d.                    P ` Q _ U K                           ",
"                                                                                                    ",
"                                                                                                    ",
"                                                                                                    ",
"                                                                                                    ",
"                                                                                                    ",
"                                                                                                    "
};
