/* XPM */
static char *_30b258a511c4bcc96587e465f209607AFFjW20WbQsP91Z9[] = {
/* columns rows colors chars-per-pixel */
"50 50 254 2 ",
"   c #392A1D",
".  c #372E2A",
"X  c #542D19",
"o  c #633019",
"O  c #513528",
"+  c #483C35",
"@  c #6A3D26",
"#  c #4F413A",
"$  c #584539",
"%  c #674A36",
"&  c #715031",
"*  c #2C4F5D",
"=  c #534D49",
"-  c #595149",
";  c #4C4E50",
":  c #5A5452",
">  c #665948",
",  c #655C56",
"<  c #775B58",
"1  c #766948",
"2  c #69625C",
"3  c #72655B",
"4  c #777C59",
"5  c #4B656D",
"6  c #686565",
"7  c #756C67",
"8  c #7C736A",
"9  c #777A79",
"0  c #B73E3D",
"q  c #DB1C38",
"w  c #885336",
"e  c #AB5039",
"r  c #917335",
"t  c #DD6B1B",
"y  c #E45126",
"u  c #B4514F",
"i  c #906C50",
"p  c #AF6C4E",
"a  c #A46E5D",
"s  c #847669",
"d  c #947A64",
"f  c #847B78",
"g  c #D46C50",
"h  c #E67A5D",
"j  c #A7A13A",
"k  c #CED73C",
"l  c #E0EB27",
"z  c #908F53",
"x  c #B08F5B",
"c  c #9DA35D",
"v  c #958C6C",
"b  c #8C827A",
"n  c #95877A",
"m  c #B0936C",
"M  c #A69B79",
"N  c #DD995A",
"B  c #F18558",
"V  c #D49073",
"C  c #D3A772",
"Z  c #EBA273",
"A  c #DCE646",
"S  c #DED667",
"D  c #3A7A8D",
"F  c #557B89",
"G  c #4C879E",
"H  c #668E98",
"J  c #5190A8",
"K  c #569AB4",
"L  c #6B9BAE",
"P  c #5BA3B7",
"I  c #71ABB7",
"U  c #37A2D0",
"Y  c #1AB6EC",
"T  c #2FACE3",
"R  c #28B6EA",
"E  c #39B7E8",
"W  c #32BBEE",
"Q  c #27BCF2",
"!  c #2ABEF4",
"~  c #34BEF2",
"^  c #54B0D0",
"/  c #6DB3CB",
"(  c #47BDEB",
")  c #56BCEB",
"_  c #41BEF2",
"`  c #61BEE8",
"'  c #2DC1F5",
"]  c #33C2F5",
"[  c #3BC2F5",
"{  c #3AC5F9",
"}  c #72C0C8",
"|  c #4BC1ED",
" . c #58C2EB",
".. c #44C3F4",
"X. c #4BC5F4",
"o. c #49C9F7",
"O. c #4CCBF9",
"+. c #53C5F4",
"@. c #5BC6F5",
"#. c #54CAF6",
"$. c #5CCBF5",
"%. c #53CBF9",
"&. c #5BCCF9",
"*. c #59D1FA",
"=. c #69C6EB",
"-. c #79C8EA",
";. c #79D1EE",
":. c #66C7F2",
">. c #63CCF5",
",. c #6BCDF5",
"<. c #62CDF9",
"1. c #6CCEF9",
"2. c #73CCF3",
"3. c #79CDF3",
"4. c #65D1F7",
"5. c #6DD1F5",
"6. c #64D1FA",
"7. c #6BD3F9",
"8. c #74D3F6",
"9. c #7BD4F5",
"0. c #78D9F7",
"q. c #74D5F9",
"w. c #7BD5F9",
"e. c #7EDAFA",
"r. c #898886",
"t. c #978D86",
"y. c #9B9288",
"u. c #86959C",
"i. c #9A9695",
"p. c #A69685",
"a. c #A59C97",
"s. c #97A79B",
"d. c #ABA797",
"f. c #B7AA97",
"g. c #B8A995",
"h. c #8D95A4",
"j. c #91A5AC",
"k. c #89A7B4",
"l. c #AAA7A4",
"z. c #B6ACA6",
"x. c #ABB7A7",
"c. c #BBB4AA",
"v. c #A7B5B6",
"b. c #BCB8B5",
"n. c #CCAD8B",
"m. c #EDA189",
"M. c #C7B7A5",
"N. c #D4BCAA",
"B. c #C7BBB5",
"V. c #D0BEB6",
"C. c #EDBDA5",
"Z. c #BFC497",
"A. c #D4C195",
"S. c #EDCB94",
"D. c #CEC1AA",
"F. c #D9C3AB",
"G. c #CCC3BC",
"H. c #D4C4BA",
"J. c #D9C7B8",
"K. c #E3C8B6",
"L. c #EBCDB0",
"P. c #92B8C9",
"I. c #A6BCC2",
"U. c #C4BFC1",
"Y. c #8AC5DB",
"T. c #94CBDC",
"R. c #A6C3CA",
"E. c #A9CDDB",
"W. c #85CBEB",
"Q. c #94CFE8",
"!. c #87D3ED",
"~. c #98D7EF",
"^. c #81CDF2",
"/. c #83D4F5",
"(. c #8CD4F2",
"). c #85D9F7",
"_. c #8CDAF5",
"`. c #83D6F9",
"'. c #83DAFA",
"]. c #8CDBF9",
"[. c #92D5F3",
"{. c #9BD6F2",
"}. c #94DBF4",
"|. c #9CDCF4",
" X c #93DDF9",
".X c #99DDF8",
"XX c #A9D7EA",
"oX c #B9D6E8",
"OX c #A3DCF4",
"+X c #AADDF4",
"@X c #A3DEF9",
"#X c #B4DEF4",
"$X c #8EE2FA",
"%X c #98E2F7",
"&X c #9DE3FA",
"*X c #A4E2F5",
"=X c #ACE2F4",
"-X c #A4E3FA",
";X c #ACE4FA",
":X c #AAEAF9",
">X c #B3E4F5",
",X c #BBE4F5",
"<X c #B6E9F7",
"1X c #BBEAF9",
"2X c #C7C4C3",
"3X c #D7CBC6",
"4X c #D3CDCA",
"5X c #DBD1CA",
"6X c #C0D3DE",
"7X c #DBD7D4",
"8X c #E1CDC4",
"9X c #EAD9C8",
"0X c #F2DDCA",
"qX c #E4DBD6",
"wX c #E5DCD8",
"eX c #F3E4CE",
"rX c #EBE2DA",
"tX c #F6E7D6",
"yX c #F3E5DA",
"uX c #F9EBDB",
"iX c #C7DBE2",
"pX c #CEDFEA",
"aX c #C3E0EE",
"sX c #D5E4EC",
"dX c #C5E5F5",
"fX c #C4EAF6",
"gX c #CCEBF5",
"hX c #C3ECF9",
"jX c #CCEDF9",
"kX c #D4ECF5",
"lX c #DCEDF4",
"zX c #D6EEF9",
"xX c #CAF0F9",
"cX c #DDF1F6",
"vX c #D4F0F9",
"bX c #DCF2F9",
"nX c #EBE5E3",
"mX c #EBE8E8",
"MX c #F3EBE7",
"NX c #FAF1E6",
"BX c #FBF3EA",
"VX c #E1EEF4",
"CX c #ECEFF2",
"ZX c #F0EFF3",
"AX c #E4F1F6",
"SX c #EBF3F6",
"DX c #E4F3F9",
"FX c #ECF5F9",
"GX c #F4F4F5",
"HX c #FAF5F4",
"JX c #F9F8F7",
"KX c #F3F7F9",
"LX c #F5F9FA",
"PX c #FCFBFC",
/* pixels */
";X].).8.`.`.9.#.o.o.#...#.%.o.] X.X...X.1.&.%.X.$.%.*.7.'.*.e.>.&.1.%.7.q.`.w.}.<X@X=X#X.X,XhX<XhXxX",
";X/.$.O.#.&.#.[ [ [ #.>.$.' $.{ 1.*.] [ { o.&.<.*.*.=.-.8.*.| $.&.$.$.w.7.7.w.w.8..X+X@X;X@X<X@X&XjX",
"}.]. Xw.$.9.5.$.>.#.' ] ..Q ..#.<.] ' ..X.O.o.O.Q Q ^ I @.7.0.7.$.O.1.w.0.q.'.1.]..X.X@X.X'.].&X-X1X",
"=X|._.w.#.o.<.#.W ..o...] ' [ ~ ..' [ #...O.O.*.W Q } M P ^ <.<.1.%.@.3.w.6.7.].7.'.].'.1.q.].`. X;X",
"|.}.&X0.#.>.;.#.+.,.>.X...{ ] ] ' ...._ ..%.&.6.X._ K # r = [ Q ..%.2.2.,.<.<.<.@.`.w.'.].8.`.]..X+X",
",X*X].).9.>.2.>.X.$...[ ] { [ ..' ] W ~ [ +.+.[ ~ U K ; . + ..R [ &.:.1.$.#.$.,.+.<.&.1.`.3.{.]. X@X",
" X X`.9.,.<.$.$.#.$.o.{ { ' %.W ' ' ! W [ { ~ ! ( F I 5 * * W R ~ ~ ,.:.,.7.$.&.@.1.`.&X;X.X.X/.`. X",
"OX.X/.9.,.&.4.<.&.$.,.$.*.O.#.[ [ ] ..>...~ ~ ~ L C C > D Y Q T { ..) ) +.#.#.+.1.hXPXPXJXKX.X`.1.;X",
"#X#X].w.*.#.<.<.4.5.+.$.7.,.1.X.X...%.4.X.W [ #.g.x p i 9 Y ' R ] ] ( | +.[ [ X.q.PXPXPXPXJXAXdX@X@X",
"#X[.9.e.q.$.>.$.0.8.<.$.6.1.6.#.| ..X.| ( E | ^ f i & i s.^ } P ^ } L J ^ | | ~ $.PXPXPXPXJXlXDXKX.X",
"OX/.8.q.9.q.4.<.8.<.@.+.o.+.o.....E  .I P J I 5 8 v.8 d.f.Z.x.g.x.x.b 5 G K K / [.PXPXPXPXPXDXfXVX%X",
"[./.q.5.8.e.5.O.+.+.@.%.O.+.@.) I D G L g.t.f.x.v.L r.R.u.rXR.b.aXE.4X} k.d.H I KXPXPXPXPXPXFXhXlX'.",
"#X/.8.<.*.8.5.O.o.+.<.7.*.%.1.W.g.M s.k.rX5X9XeXuXM.D.uXG.uXNXmXNXNXuXNX8XsX( E FXPXPXPXPXPXLXbXDX'.",
"#X3.$.%.O.5.$.O.o.@.<.6.O.X.@.^.5XtXyX4XHXtX0XS.S S S F.BXrXNXNXrXeXNXBXqX/ ;.W.DXLXPXPXLXPXPXPX1Xw.",
"(.w.w.<.4.<.$.&.1.2.2.&.O.X.+.`.uXtXtXMXBXyXm.t t t t v D.0XuXuX0XtXBXBXR.-.DXFXLXLXFXLXPXPXPXLXkX&X",
"`.].`.`.'.,.5.`.w.`.k./ %.X.@.R.8XJ.0X0XtXA.N Z m.Z i n.D.Z.uXuXuXrXGXCXW.kXPXPXPXPXLXLXPXPXPXPXPXDX",
"zXjX X2.].0.0. X X[.d.iXhXT.v.i.N.M.L.uXuX9XM , ZX2 , y.8X8XuXNXNXMXBX[.:.gXPXJXPXJXLXPXPXPXPXPXPXPX",
"PXPXhX`.6.7.q.].`.iXrXPXPX4XwXc p.d.eXuXtX8X6   8 z.r.H.0XtXuXMXBXBXl.:.2.-.zXVXZXFXVXPXPXPXPXPXJXPX",
"PXPXFX@X1.6.7.0.L mXPXPXHXb nXd.4 d.rXtX0X0Xf i.2XMXt.0XK.tXNXNXBXBX/ kXlXgXAXKXlXlXKXPXPXKXJXJXJXPX",
"PXPXJX-X`.e.'.].iXLXPXPXPX7XZXG.z y.3XtXH.9Xz.i.t.4Xa.z.2Xb.HX0X8Xf * mX4X4Xl.Q.&XLXPXPXPXPXPXLXLXJX",
"PXPXbX].].].'.].zXPXl.PXPXPXMX7Xr.3XwXB.wXyX7XV.d.7XB.H.eXc.a.qXMX8 k.pXb.r.P.) {.JXPXPXPXPXPXJXJXLX",
"PXPXLXFX'.e.'.$XbXPXnXJXPX7XnXf rXrXqXc.7X8XH.3XqXwX5XH.yXMXrX5Xv.K ` v a.m.` ) lXPXPXPXPXPXGXJXKXKX",
"KXPXPXPX;Xq.'.$X-Xi.JXJXMXnXU.MXHXrXtXMX8 N.V.qXnXqX5XV.4Xa.eXa.u.F P.m.w p.` ^.PXPXPXJXPXPXFXlXDX1X",
"LXPXPXJX:X7.%X].w.^.nXMXwXnXqXHXgXE.c.nXB.J.B.2XwXqXy.B.V.5XtX0X4X, g C.g W.` ^.LXPXPXGXJXvXbXLXPXJX",
"PXPXPXdX`.].-X@X/.q.8.`.oXqXnXnXjX#X3XV.5XC.M.N.8X8XK.V.V.N.0XC.m.B S.a h 3.^.^.PXPXJXJXPXPXPXJXLXKX",
"PXJXZX@X7.].&Xw.`..X'.w.*XAXMXwXkXE.9XF.N.K.N.K.s C.K.V.B.M.0XC.p.h S.h XX^.[.@XPXPXJXJXHXPXPXLXVXjX",
"PXPXVX@Xe.'.]. X-X]. X,X;XDXPXHXCXj.2XJ.K.N.N.K.a.C.J.H.J.y.L.L.B g S.g {.{.(.^.LXPXPXPXJXJXPXFXhXzX",
"JXJXPXPXjX-XjXhXkX-X X;X,XGXPXJX4Xb.mX4XrXb./ Z.C n.R.M.K.y.b n.h Z w a SX+XW.(.@XzXPXPXGXSXKXSX,XLX",
"PXFXJXLXFXJXzX-X$X&X<XsX7XHXSXMX4Xi.i.b.B.4XU.a.b A.S S n.b.N.m B Z y HXJXLXpXOXJXLXLXJXSXVXkXFXPXPX",
"JXFXVXDX1XjXe.$X].;XXX2X2XHXa.i.GXZXF , 9 = r.ZXc.M A l k d.M.f a N e HXLXGXMXCXSXLXFXAXkXJXJXJXPXPX",
"PXDX#X-X].$X'.&X-XhXd.R.wXl.z.b.l.7XyXyXG.6 j.mXS.c k A l z N.a 0 Z u GXGXKXVXVXlXDXLXPXSXHXPXPXPXLX",
"PXPXPXbX X$Xe.&X1X,XqXmXa.. : : : 7XGXV = v eXH.c.v A S k A D.e q a y sXFXFXFXVXZXPXPXPXPXJXPXPXAXJX",
"PXJXLXDX]. Xe.$XxX<X5Xd.t.7 4Xc.. i.mXn f r c c.z.y.S j j j v j u < y #XDXPXPXPXGXPXPXPXFXJXKXSXVXGX",
"FXAXZXzX-X-X%X:X<X:Xf.x d.l.B.r.: l.mX4X6 1 1 M 1 b f.$ 1 %   c P.u.g #XjXPXPXPXlXzXLXPXJXPXJXKXDXGX",
"KXSXKXbX-X-X&X:X:X.X2Xm b.f B.2X6 8 i.a.c.M v 1 z c.z g.t.i O , P.P.h.+XjXJXFXKXsX<XbXPXPXPXPXLXFXFX",
"PXKXlXjX&X-X-X-X<X-Xl.p.b.4X4XwX. : = z.i.l.d = d 7X: l.s f.O s 6 h.aXdX>XKXzXzXlX1XbXPXPXPXJXPXDXKX",
"LXLXbXbX>XzX;X:X:X1X6Xb f a.HXmX2 v b v 8 3 d - - z.7 f 2 7X+ : 6 l.sXZXlXZXZXAXDXkXGXLXPXJXJXPXFXLX",
"LXJXLXLXDXPXbXjXxXgXoXi.n b U.2X4 > 2 , 3 3 < = ; b 3 b 7 i.% + f r.P.W.{.{.+X#X#XaXdXdX,XdX,X>X,XlX",
"DXhX#XjX@X(.|.).`.0.=.P.x x 2X4Xd.& &   O $ + % + 3 - 8 s 7 + . - < ^ T ) ) ` ^.(.(.(.(.=.=.:.:.9.dX",
"zX+X{.(.`.:.>._ ' ] ] ^ M x n.PXG.r j % X X o o % + % % 3 3 = + - F T T T ( ` ` -.3.)  .) =.2.W.{.sX",
"cX,X(.2.2.>.8.| +.| [ =.s.A.r 4XmXp.g.i & + O o & @ & X O & y.- - K Y Y E | ( ) =.=.) =.-.-.XX>X,XCX",
"FX,X~.2.E E | [ | $.^ -.I.rXJ.mXPXrXBX5X3Xi.  X w w w @ X & 3 $ 9 ^ ( | =.=.=.2.2.2.2.!.+X+XkXgXgXGX",
"LXvX,X}.=. . .=.=.5.-.Y.k.v.FXPXPXJXJXJXPXmXB.B.H.H.H.H.M.V.Z.G.R.j.k._.!.=.;.W.[.{.(.[.OXVXSXSXAXJX",
"KXcXcX,X,X[.|.|.}.}.;.Q.Y.Y.*X*X|.%X|.}.|.%X;XOX3.` -.^.|.,XXX*XXXT.T.!.[.OXOXOXOX>X>X,XdXAXAXJXGXGX",
"DXDXbXbXDXOX<X<X%X;.0.|.*X|.}.;.!.;.!.;.;.)._.!./.!.!.(.~.~.%X*XOX|.!.~.+X,X=X1XfXgXjXlXGXLXSXKXLXGX",
"FXSXLXLXLXcXxXfXfX=X<X|.OX~.=X|.;.;.$X;.4.=.5.5.[.{.+X>X<X=X}.:X|.|.XX,X+X*X$X].<X;XfXFXAXJXGXAXJXHX",
"PXFXKXDXxXfX<XhXkX1XxX_.%X%X<X<X;.%X!.!.;.;.;.;.0.;.}.}.*X}.<X!.!.=XgX>X=XlXlXkXDXbXSXGXKXLXKXGXKXZX",
"LXLXFXKXLXSXDXFXAXxXxXvXfXxXbX<X!.:X<X|.*X|.%XOX=X=X!.[.~.<X:X~.=X>XgX>XfXcXVXjXkXbXDXcXGXLXLXFXGXPX",
"PXJXFXKXLXPXLXFXvXFXFXbXfXbX<XxXkXkXxX*X<X<X|.|.gXgX=X,XkXvX,X1X<XgXfXxXDXkXaXfXGXPXKXSXJXLXLXJXJXPX",
"PXFXbXSXLXLXLXDXkXDXbXxXcXDXAXkXSXSXLXFXgXkXkXkX1XkXfXVXkX<X~.<XfXfXvXcXAXgXvXAXAXAXGXLXPXSXHXPXPXPX"
};
