/* XPM */
static char *_46c3900a680423d9ac41fa74862c75cvr0Q50sdkPlOYgQe[] = {
/* columns rows colors chars-per-pixel */
"50 50 180 2 ",
"   c #393528",
".  c #050A06",
"X  c #0B0906",
"o  c #060509",
"O  c #08070B",
"+  c #07080A",
"@  c #0A0A0B",
"#  c #141405",
"$  c #080710",
"%  c #141414",
"&  c #171719",
"*  c #1B1B1B",
"=  c #20050A",
"-  c #3B0819",
";  c #2B2A09",
":  c #30301A",
">  c #242324",
",  c #2C2C2D",
"<  c #2F2F30",
"1  c #2F3030",
"2  c #333333",
"3  c #383737",
"4  c #363639",
"5  c #3A3A3A",
"6  c #630217",
"7  c #63021C",
"8  c #6B011D",
"9  c #5B0620",
"0  c #6D0126",
"q  c #750221",
"w  c #7B0326",
"e  c #74022A",
"r  c #76143D",
"t  c #414118",
"y  c #515015",
"u  c #686515",
"i  c #7F7F12",
"p  c #7C7C1E",
"a  c #626222",
"s  c #757320",
"d  c #79384E",
"f  c #3F4044",
"g  c #434343",
"h  c #474749",
"j  c #4D4D4E",
"k  c #4D4E50",
"l  c #545455",
"z  c #575759",
"x  c #58575A",
"c  c #5C5C5C",
"v  c #776C4B",
"b  c #5E5E60",
"n  c #636363",
"m  c #666669",
"M  c #6C6C6C",
"N  c #766169",
"B  c #747361",
"V  c #6F6F71",
"C  c #727273",
"Z  c #7C7C7D",
"A  c #A7103C",
"S  c #AE103D",
"D  c #857C23",
"F  c #AB1243",
"G  c #A8174D",
"H  c #B51140",
"J  c #BC1142",
"K  c #B4124E",
"L  c #B70853",
"P  c #B81253",
"I  c #C30F43",
"U  c #C80B4E",
"Y  c #C5104C",
"T  c #CB0958",
"R  c #DF035D",
"E  c #E3014D",
"W  c #EA014E",
"Q  c #E40151",
"!  c #EA0053",
"~  c #E3015B",
"^  c #ED005C",
"/  c #E50165",
"(  c #EB0163",
")  c #80800B",
"_  c #99970F",
"`  c #898914",
"'  c #939416",
"]  c #BEBE17",
"[  c #8E8423",
"{  c #8E8E2E",
"}  c #9B9B21",
"|  c #93922C",
" . c #8F9335",
".. c #979735",
"X. c #ABA82D",
"o. c #B2AC2E",
"O. c #BCB82A",
"+. c #B6B63C",
"@. c #C1C20C",
"#. c #DADF0B",
"$. c #C7C81B",
"%. c #D0CF1B",
"&. c #DBD911",
"*. c #DADC1B",
"=. c #E1DC0D",
"-. c #E3DE12",
";. c #E5DE1B",
":. c #DCE011",
">. c #EAEA0E",
",. c #EDF00C",
"<. c #FDFE03",
"1. c #F5F60C",
"2. c #FCFC0B",
"3. c #E4E315",
"4. c #EBEC15",
"5. c #E5E21D",
"6. c #F7F716",
"7. c #FBFC12",
"8. c #FAFB1A",
"9. c #C8C92C",
"0. c #D5D727",
"q. c #D7D923",
"w. c #DBDA25",
"e. c #CCC638",
"r. c #D5D33C",
"t. c #E6DF20",
"y. c #ECEB22",
"u. c #E5E229",
"i. c #EBEC28",
"p. c #F9F922",
"a. c #A4A343",
"s. c #ADAC4A",
"d. c #B2B34B",
"f. c #B9B94A",
"g. c #BCBD4C",
"h. c #BFC041",
"j. c #C4C442",
"k. c #C4C44D",
"l. c #D2CE43",
"z. c #D7D445",
"x. c #C9C750",
"c. c #CCCB52",
"v. c #D4D355",
"b. c #E2DC46",
"n. c #7F7F80",
"m. c #838385",
"M. c #868688",
"N. c #8C8C8D",
"B. c #8F8F91",
"V. c #939394",
"C. c #979798",
"Z. c #9C9C9C",
"A. c #A4808F",
"S. c #A4A4A4",
"D. c #ACADAD",
"F. c #AEAEB0",
"G. c #B4B4B4",
"H. c #B6B6B8",
"J. c #BBBBBB",
"K. c #C3BF9F",
"L. c #C0BABD",
"P. c #BFBFC1",
"I. c #C4C4C5",
"U. c #C8C9C9",
"Y. c #CBCBCA",
"T. c #D4D4D4",
"R. c #D7D7D9",
"E. c #DCDCDC",
"W. c #DFDEE0",
"Q. c #E4E4E4",
"!. c #E6E8E5",
"~. c #E6E7E8",
"^. c #EBECEC",
"/. c #EFEFF1",
"(. c #F4F4F5",
"). c #F8F8F7",
"_. c #F7F7F8",
"`. c #F7F7F9",
"'. c #F7FAFA",
"]. c #FAFAFB",
/* pixels */
"                                                                                            O X +   ",
"                                                                                          O         ",
"                                                                                                  @ ",
"                                                                                                    ",
"                                                                                                    ",
"              @ * * * %                                                           % @ .             ",
"          o % m.^.].).S.*                                                       z J.H.n @           ",
"          $ t Q.].].].^.n                 ; a p i ) ) ` s a #                 k ].].].(.*     O     ",
"            M ].].].].].Z             ; X.@.4.7.7.8.7.8.p.i.@.| :             U.].].].]., + +   @ @ ",
"        M E./.].].].).T.3         . ..3.1.<.<.<.2.2.7.2.7.7.7.8.u.y o         T.].].].].Z j @ O @ @ ",
"      * E.].].].].].).D.@       # ' 6.1.<.<.<.<.<.<.<.<.<.2.2.7.2.8.u O o   + f ].].].].].].Y.3 @ $ ",
"      M ^._.).].).].(.R.c @   @ ` 6.%.w.6.1.2.<.<.<.<.<.<.<.2.2.-.>.6.u     + k ].].].].].].].m.O O ",
"      5 ~.).).).(./.].).T.c + s 8.$.' y.} 5.i.2.<.<.<.<.<.<.p.5.$.9.2.4.y @ b /.].].].].].].].C $ O ",
"        z Q.^.D.l g ^.].).R.: 4.1.q.3.%.$.&.] 1.<.<.<.<.<.<.4._ 2.X.,.2.9.B Q.].].Q.I.].].].I.> O O ",
"        . & & @ X   , ^.).!.v [ [ D D D [ [ | X.o.O.e.e.r.z.b.l.b.l.r.l.c.K.^.].~.g * 2 C g & @ + O ",
"                      g Q.N G P U Y Y Y I I I J J H H H S S A F F F K K P r L.Q.*   + + @ @     + O ",
"                        l d U R ~ ~ ^ Q E Q E E W W W W W ! ! ^ ^ ( ( ( ( L A.*     +   o X @ + O @ ",
"                          e T ~ ~ ~ Q R E E E E E E W E ! ! ! ^ ^ ( ( ( / T -     + o + o @   + O $ ",
"                          - 0 7 6 6 7 7 6 6 6 6 8 8 0 q q w w w w e e 0 0 9 = .   .   X O o + o O o ",
"            t r.0.w.0.w.*.&.-.#.=.=.#.3.=.=.=.-.-.-.;.;.;.u.t.;.;.;.3.;.3.;.=.:.#.:.:.*.;   $ o O O ",
"            : g.j.j.j.j.+.f.g.d.s.a.a.a.X.a.d.d.h.x.c.v.v.v.v.v.v.x.k.g.f.d...{ { { |  .# o o o   o ",
"                          Z.!./.(._.Q.G.F.F.U.^.^.!.Q.E.L.V.N.V.G.Q.^.(.(.Y.2             o o o + o ",
"                          M ~.(._.T.M @   o 4 D.(.).).T.n X     2 J._._.'.N.@           o o o o   o ",
"                          % E.(._.N.@         > Q._.).N.@         < Q._.^.M             o o o o o   ",
"                            H.(.^.M         o o W.].(.V             Q.(.G.@           o o o o o     ",
"                            X Q.~.M           $ W._.(.C         . @ E.(.C                   o o o o ",
"                              C (.Z.&         t !.].).Z.&         M ^.S.                  o o o     ",
"                              @ Z.^.Z.g % , M R.(.m.G.(.Z.j * 2 C T.D.%                     o o o   ",
"                                & Z.).T.H.I.^.).M.@ x (.].E.J.U.^.S.>                     o o o     ",
"                                  @ B.(.(.].).].Q.4 V.].].).].].V.%                       o o o     ",
"                                  X @ , E.Q.^.(.].].).(.(.Q.Q.z &                           o o o   ",
"                                % l M.^.U.z M.Q.Q.J.Q.Q.N.c I.~.V.5                           o     ",
"                              @ N.Z V.(.(.H.N.Q.T., T.!.V.^.).E.b C.z                               ",
"                              S.W.L.I.n U.U.I.).).3 ).].P./.N.S.C H.E.j                       o     ",
"                            J.Q.J.Z.(.W.T.2 l G.E.5 J.M f F.^./.D.U.).W.j                           ",
"            @ 4 Z b * + * J.^.^.S.V ~.`.E.l ].).(.j ].].'.F.)./.M.J.].).T.h o & * * @               ",
"          @ n.(.(.(.~.n.H.(./.Q.V.j Z.W.Q.V.`.`.(.x ).].'.M ^.Z.M.J./.).].U.m T.]./.N.&             ",
"          * ^.(.(.(.(._.'.(./.V , D.S.J.Z U.].`.).n ].].~.4 I.F.P.h C.].].].]._.].]._.l             ",
"          * ~././.(./.(._./.b   * Z.~.Q.D.J.M C S.h C C I.H.^.].C.% & N.].].].].].]._.M.@           ",
"          * ^.(./.(.(.(._.(.*   o Z Q.~.^.^.E.W.^.~.~.~./.]._.'.n.    > (.].'.].].'.].Z @           ",
"            z R.W.(.(./._._.x     M R.Q.^.^.^././.(._.(.(.].].Q.c     C ].].].]._._.~.h             ",
"          .   @ , W.(.(.(./.S.    % V.E.Q.!.~.^.^.^.(._._.].(.N.      R.]._.].].~.V.g               ",
"                o E.(.(.(./.k       , M.Q.Q.Q.Q.^.^./.(.(._.S.>       Z.]._._._.S.                  ",
"                  V /././.C.%         % h V.E.E.Q.Q.!.^.R.c *         < ^._._.].>                   ",
"                  @ * g < @               @ & * * > * * & .             > m m >                     ",
"                                                                                                    ",
"                                                                                                    ",
"                                                                                                    ",
"                                                                                                    ",
"                                                                                                    "
};
