/* XPM */
static char *_77b2a1723b94fef8b111a63733a5d29BFf5usyws906yx4o[] = {
/* columns rows colors chars-per-pixel */
"50 50 118 2 ",
"   c None",
".  c gray61",
"X  c #9D9D9D",
"o  c #9D9E9E",
"O  c gray62",
"+  c #9E9F9F",
"@  c #9F9F9F",
"#  c #9FA0A0",
"$  c #A0A0A0",
"%  c #A0A1A1",
"&  c gray63",
"*  c #A1A2A2",
"=  c #A2A2A2",
"-  c #A2A3A3",
";  c gray64",
":  c #A3A4A4",
">  c #A4A4A4",
",  c #A5A5A5",
"<  c #A5A6A6",
"1  c gray65",
"2  c #A7A7A7",
"3  c #A7A8A8",
"4  c gray66",
"5  c #A8A9A9",
"6  c #A9A9A9",
"7  c #A9AAAA",
"8  c #AAAAAA",
"9  c gray67",
"0  c #ABACAC",
"q  c #ACACAC",
"w  c #ACADAD",
"e  c gray68",
"r  c #ADAEAE",
"t  c #AEAEAE",
"y  c #AEAFAF",
"u  c #AFAFAF",
"i  c #AFB0B0",
"p  c gray69",
"a  c #B0B1B1",
"s  c #B1B1B1",
"d  c #B1B2B2",
"f  c #B2B2B2",
"g  c #B2B3B3",
"h  c gray70",
"j  c #B2B4B4",
"k  c #B3B4B4",
"l  c #B3B5B5",
"z  c #B4B4B4",
"x  c #B4B5B5",
"c  c gray71",
"v  c #B5B6B6",
"b  c #B6B6B6",
"n  c #B6B7B7",
"m  c #B7B7B7",
"M  c #B7B8B8",
"N  c gray72",
"B  c #B8B9B9",
"V  c #B9B9B9",
"C  c #B9BABA",
"Z  c #B9BBBB",
"A  c gray73",
"S  c #BABBBB",
"D  c #BBBBBB",
"F  c #BABCBC",
"G  c #BBBCBC",
"H  c #BCBCBC",
"J  c #BCBDBD",
"K  c gray74",
"L  c #BDBEBE",
"P  c #BDBFBF",
"I  c gray",
"U  c #BEBFBF",
"Y  c #BEC0C0",
"T  c #BFC0C0",
"R  c #C0C0C0",
"E  c #C0C1C1",
"W  c #C1C2C2",
"Q  c gray76",
"!  c #C2C3C3",
"~  c #C3C4C4",
"^  c #C6C6C6",
"/  c gray79",
"(  c #CACBCB",
")  c #CCCDCD",
"_  c #CDCECE",
"`  c #CECECE",
"'  c #CECFCF",
"]  c #CFD0D0",
"[  c #D0D0D0",
"{  c #D0D1D1",
"}  c gray82",
"|  c #D1D2D2",
" . c #D2D2D2",
".. c #D2D3D3",
"X. c #D3D4D4",
"o. c gray83",
"O. c #D4D5D5",
"+. c #D4D6D6",
"@. c #D5D6D6",
"#. c gray84",
"$. c #D6D7D7",
"%. c #D7D7D7",
"&. c #D6D8D8",
"*. c #D7D8D8",
"=. c #D8D8D8",
"-. c #D8D9D9",
";. c #D8DADA",
":. c #D9DADA",
">. c #DADADA",
",. c #DADBDB",
"<. c #DBDCDC",
"1. c #DBDDDD",
"2. c #DCDDDD",
"3. c #DEDFDF",
"4. c #DFE0E0",
"5. c gray88",
"6. c #E0E2E2",
"7. c #E1E2E2",
/* pixels */
"                                                                                                    ",
"  1.6.6.6.6.6.6.c +.6.6.6.6.6.6.a >.6.6.6.6.6.6.y 6.6.6.6.6.6.6.l 1.6.6.6.6.6.6.H o.6.6.6.6.6.6.H   ",
"  6.6.6.7.7.6.7.I o.6.6.6.6.6.7.c <.6.6.7.7.6.6.h 7.7.7.7.7.7.7.V 2.6.6.6.6.7.7.R >.6.7.7.7.6.6.I   ",
"  6.6.6.7.7.7.7.I o.6.6.6.6.7.7.c 2.7.7.7.7.6.6.a 6.7.7.7.7.7.7.V 2.6.6.6.6.7.7.R >.7.7.7.6.6.6.I   ",
"  V I I I I I I , c I I I I I I $ V R I I I T I # I I I I I I I , V I T I I I R , M R T I I R T ,   ",
"  &.o.o.h ^ o.o.o.o.+.+.y ( o.o.o.o.o.o.9 ] o.o.o.o.o.o.y [ ..+.o.o.o.o.i ` o.o.o.o.o.o.c ( o.o.o.  ",
"  6.6.6.T o.6.6.6.7.6.6.V &.6.6.6.7.7.7.l 4.6.6.6.6.7.7.m 5.6.6.6.7.6.6.T 1.6.7.6.6.6.7.~ o.6.6.6.  ",
"  6.6.6.I o.6.6.6.6.6.6.V >.6.6.6.6.7.7.c 2.6.6.6.6.6.6.c 5.6.6.6.6.6.6.G >.6.6.6.6.7.7.~ &.6.6.6.  ",
"  G G G = p H V I G G G $ c G I V H H H . m V H I I I V $ V I G H V I I $ c I V G G I V , c V I I   ",
"  ..&.o.%.%.o.>.a ( &.o.o.>.o.&.y ..o.%.>.&.&.>.9 +.o.>.&.o.&.o.y ..o.&.&.&.o.>.c ` o.>.&.o.&.&.c   ",
"  6.6.6.7.7.6.6.I o.6.6.7.7.6.6.c 2.7.7.6.6.6.6.a 6.6.7.7.7.6.6.V 2.6.6.6.7.7.7.R >.7.7.6.6.6.6.I   ",
"  6.7.6.6.6.6.6.G >.7.6.6.6.6.6.c 1.7.6.6.6.6.6.a 6.6.7.7.6.6.6.H 2.6.6.6.6.7.7.R &.7.7.7.7.6.6.T   ",
"  c V V V V V V $ y V V V V V V . a V V V V V V . c V V H V G V # l V V V V V V : l V V V G V M :   ",
"  >.>.>.c ( >.>.&.>.>.>.i ..>.>.>.>.&.>.y o.>.&.>.>.>.>.y o.&.>.>.>.>.&.l ..>.>.>.&.>.&.V ` >.>.>.  ",
"  6.6.7.T +.6.6.6.6.6.7.V >.6.6.7.7.6.6.c 2.6.6.6.6.6.6.c 5.6.6.6.7.6.6.I 1.7.7.7.6.6.6.~ %.6.6.6.  ",
"  6.6.6.I +.6.6.6.6.7.7.V &.6.6.7.6.6.6.c 5.7.6.6.6.6.6.V 6.6.6.6.6.6.4.I >.7.7.7.6.6.6.~ %.7.6.6.  ",
"  c c m $ 9 c c c c c c . y c c V c c c . h c c c c m c . a c c c c c c $ a c c c c c c = p c c c   ",
"  >.<.<.1.1.2.2.c ..2.2.2.2.2.2.a o.1.2.<.2.2.<.y 2.<.<.2.2.2.2.c o.2.1.1.1.<.2.V o.1.2.<.2.2.<.V   ",
"  6.7.7.6.6.6.6.V &.7.7.6.6.6.6.c 2.6.6.7.7.6.6.a 6.6.7.7.7.6.6.V 2.6.6.6.6.7.7.R >.6.6.7.7.6.6.T   ",
"  6.7.6.6.6.6.6.I &.7.7.6.6.6.6.c 2.6.6.7.7.7.6.l 6.6.6.7.7.7.6.H 2.6.6.6.6.7.7.R >.6.6.7.7.7.6.T   ",
"  y c c c c c l . 9 c c c l c c . p h c c c c c . a c c c c c c $ a c c c c c h $ i c c c c c c #   ",
"  4.4.2.V ..4.4.2.6.4.2.c o.2.4.6.2.5.5.i >.2.6.2.5.2.6.a 2.6.2.2.5.2.4.c >.2.5.2.4.2.6.I +.2.6.4.  ",
"  6.6.6.I o.7.7.7.7.6.6.V >.7.6.6.6.7.7.l 4.6.6.6.7.7.7.m 5.6.6.7.7.6.6.I 1.7.7.6.6.7.7.~ &.6.7.6.  ",
"  6.6.6.I o.7.7.7.6.6.6.V >.7.6.6.6.7.7.c 2.6.6.7.7.6.6.c 5.6.6.6.6.6.6.I >.6.6.6.6.7.7.~ o.6.6.6.  ",
"  h h h @ 9 a h c l a c . 9 h h a h h h . p a c c a h h . a h h a c a h $ y h h c a a h $ y a c l   ",
"  6.7.7.6.6.6.6.V o.6.6.6.6.7.7.c 2.6.7.6.7.6.7.a 6.7.7.6.7.6.6.c 2.6.7.6.6.7.7.I >.7.7.6.6.6.6.I   ",
"  6.6.7.7.7.7.7.H o.6.6.6.7.7.7.c 2.7.7.6.7.6.6.h 6.7.7.7.7.6.7.V 2.7.6.6.7.7.7.R >.7.7.6.7.6.6.I   ",
"  6.6.6.7.7.7.7.H %.6.6.6.7.7.7.c <.7.7.7.7.6.6.h 6.7.7.7.7.7.7.H 2.7.6.6.6.7.7.R &.7.7.7.7.6.6.I   ",
"  a m m c c c c $ y c V c c m m $ a M c c c V c . c V c c c m c = a m c c c m c : i M M c c M c ,   ",
"  2.5.6.I ..6.6.5.6.6.2.c o.5.6.2.4.4.6.a 2.4.4.4.2.5.6.h 2.5.6.2.5.6.5.V %.5.6.4.2.4.4.T ..4.4.2.  ",
"  6.6.7.I o.6.6.7.7.6.6.V >.7.7.7.7.6.6.c 2.7.7.6.6.7.7.c 5.6.6.6.7.6.6.I 1.7.7.7.6.6.6.~ >.7.6.6.  ",
"  6.6.6.I o.6.6.7.6.6.6.V &.7.7.7.6.6.6.h 6.7.7.6.6.6.6.c 5.6.6.6.6.6.6.I >.7.7.7.6.6.6.R >.7.6.6.  ",
"  V V V , a V V m V V V , a V G V V V V $ M H V c V V V = m V V m V V V , h H V m V V V 9 a V G M   ",
"  <.2.2.2.2.2.2.V ..2.2.2.2.2.2.a %.2.2.1.1.2.2.a 2.2.2.2.2.2.2.c >.2.1.<.2.2.2.V o.2.2.>.1.2.2.G   ",
"  6.6.6.7.7.6.6.V &.6.6.7.7.6.6.c 2.6.6.6.6.6.7.c 7.6.6.7.7.6.6.V 2.6.6.6.7.6.6.R >.6.6.7.7.6.6.I   ",
"  6.7.6.7.6.6.6.I o.6.6.7.6.6.6.c 2.6.6.6.6.7.7.a 6.6.6.6.6.6.6.V 2.6.6.6.6.6.6.R >.6.6.7.6.6.6.I   ",
"  H I I V V I I 3 c I I V I I I , m I I M I I I , H I I V I I I 9 M I I V V I I 9 M I I H V I I 9   ",
"  >.<.<.V ` >.>.>.>.>.2.c ..>.>.>.<.>.>.a &.>.2.>.>.<.<.a o.>.2.>.>.<.<.V o.1.>.>.>.>.2.I ..>.>.>.  ",
"  6.6.7.I +.6.6.4.6.6.6.V >.4.6.7.7.6.6.c 2.6.6.6.6.6.7.V 4.6.6.6.6.6.7.I >.6.6.6.6.7.7.~ o.6.6.6.  ",
"  6.6.6.I +.6.6.6.6.6.6.M >.6.6.7.6.6.6.l 4.6.6.6.6.7.7.c 4.6.6.6.6.6.7.I >.6.6.6.6.6.6.~ &.6.6.6.  ",
"  T R R 9 M R R G I R R 9 V T R V T R R 3 I R R V T R R 3 I R R G T R R 0 V R R I I R T y V T R G   ",
"  &.>.>.o.>.>.>.c ] >.>.&.&.&.>.a ..>.&.o.>.>.>.y >.>.>.&.&.>.>.l o.>.>.&.>.>.>.V ] >.>.&.>.&.>.V   ",
"  6.7.7.6.6.6.7.G o.6.6.7.7.6.6.M 2.7.6.6.6.7.7.l 6.7.7.6.6.6.6.V 2.7.7.6.6.6.6.R &.6.6.7.7.6.6.I   ",
"  6.7.7.6.6.6.6.G &.6.6.7.6.6.6.c 2.7.6.6.6.7.7.a 6.7.7.6.6.6.6.V 2.7.7.6.6.6.6.T >.6.6.7.6.6.6.I   ",
"  R ~ ~ I R ~ ~ y I ~ ~ I R ~ ~ 9 I ~ ~ I R ~ ~ 9 R ~ ~ I R ~ ~ 0 T ~ ~ I T ~ ~ y I ~ R I R ~ R i   ",
"  o.&.&.c ` &.o.+.o.o.>.h ] o.&.o.%.&.o.i o.o.>.+.o.o.>.a o.&.&.o.&.&.&.c ..&.o.o.o.>.>.I ` o.>.&.  ",
"  6.6.6.I o.6.6.6.6.6.6.V >.6.6.6.7.6.6.c 4.7.7.7.7.6.6.M 4.6.6.7.7.6.6.I >.7.7.6.6.6.7.~ o.6.6.6.  ",
"  6.7.6.I o.7.6.6.6.6.6.V >.7.7.6.6.6.4.l 4.7.7.7.7.6.6.c 6.6.4.7.6.6.6.I 2.7.7.6.6.6.6.~ >.6.6.6.  ",
"  I R I , c T I T I Y I : M I T G T T T # V T T I T G T $ I T I I T I I , V T T I T G T 9 c T I G   ",
"                                                                                                    "
};
